<svg width="16" height="9" viewBox="0 0 16 9" fill="none" xmlns="http://www.w3.org/2000/svg">
<g clip-path="url(#clip0)">
<path d="M1.5507 5.30357L12.3283 5.30357L9.96051 7.63393C9.63391 7.95536 9.63391 8.4375 9.96051 8.75893C10.2871 9.08036 10.777 9.08036 11.1036 8.75893L14.8594 5.0625C15.186 4.74107 15.186 4.25893 14.8594 3.9375L11.1036 0.241071C10.777 -0.0803579 10.2871 -0.080358 9.96051 0.241071C9.63391 0.5625 9.63391 1.04464 9.96051 1.36607L12.3283 3.69643L1.5507 3.69643C1.14246 3.69643 0.734216 4.01786 0.734216 4.5C0.734216 4.98214 1.14246 5.30357 1.5507 5.30357Z" fill="#4285F4"/>
</g>
<defs>
<clipPath id="clip0">
<rect width="14.3702" height="9" fill="white" transform="translate(15.1044 9) rotate(-180)"/>
</clipPath>
</defs>
</svg>
