<svg id="Layer_1" xmlns="http://www.w3.org/2000/svg" viewBox="0 0 999.7 718.3"><style>.st0{fill:#dbdbdf}.st1{fill:#f9bc15}.st2{fill:#5881c2}.st3{fill:#557ebf}.st5{fill:#fff}.st6{fill:#d4e2f4}.st8{fill:#fce8e5}.st9{fill:#ea4535}.st10{fill:#d0e9d7}.st11{fill:#3ca756}.st12{fill:#ffefc6}</style><path class="st0" d="M-.3 41.1h.6v640.5h-.6zm40 0h.6v640.5h-.6zm40 0h.6v640.5h-.6zm40 0h.6v640.5h-.6zm40 0h.6v640.5h-.6zm39.9 0h.6v640.5h-.6zm40 0h.6v640.5h-.6zm40 0h.6v640.5h-.6zm40 0h.6v640.5h-.6zm40 0h.6v640.5h-.6zm40 0h.6v640.5h-.6zm40 0h.6v640.5h-.6zm40 0h.6v640.5h-.6zm39.9 0h.6v640.5h-.6zm40 0h.6v640.5h-.6zm40 0h.6v640.5h-.6zm40 0h.6v640.5h-.6zm40 0h.6V521h-.6zm40 0h.6V521h-.6zm40 120h.6V521h-.6zm40 0h.6V521h-.6zm40 0h.6V521h-.6zm39.9 0h.6V521h-.6zm40 0h.6V521h-.6zm40 0h.6V521h-.6zm40 0h.6V521h-.6z"/><path class="st0" d="M0 40.8h719.8v.6H0zm0 40h719.8v.6H0zm0 40h719.8v.6H0zm0 40h999.7v.6H0zm0 40h999.7v.6H0zm0 40h999.7v.6H0zm0 40h999.7v.6H0zm0 39.9h999.7v.6H0zm0 40h999.7v.6H0zm0 40h999.7v.6H0zm0 40h999.7v.6H0zm0 40h999.7v.6H0zm0 40h999.7v.6H0zm0 40h639.8v.6H0zm0 40.6h639.8v.6H0zm0 40h639.8v.6H0zm0 40h639.8v.6H0z"/><path class="st1" d="M120.2 101.6c-17.8 0-20.1-27.1-22.3-53.4C95.8 24 93.8 1 80.2 1c-13.7 0-16.8 23.2-20 47.7-3.4 26-7 52.9-24.2 52.9-14.9 0-18.3-17.9-21.3-33.7C12.1 54.1 9.6 41 .2 41v-1C10.4 40 13 53.5 15.7 67.7c3.1 16.2 6.2 32.9 20.3 32.9 16.4 0 19.9-26.4 23.2-52 3.3-25 6.4-48.6 21-48.6 14.5 0 16.5 23.4 18.7 48.2 2.2 25.8 4.5 52.4 21.3 52.4v1zM0 120.6h120.2v1H0z"/><circle class="st2" cx="319.9" cy="240.7" r="39.8"/><path class="st3" d="M239.7 170.9h160v1h-160z"/><g class="st4"><path class="st5" d="M319.9 244.8c-8.3 0-15-6.7-15-15s6.7-15 15-15 15 6.7 15 15-6.7 15-15 15zm0-29c-7.7 0-14 6.3-14 14s6.3 14 14 14 14-6.3 14-14-6.3-14-14-14zm-.3 67.2l-29.7-2v-.5c0-16.5 13.5-30 30-30s30 13.5 30 30v.5l-30.3 2zm-28.7-3l28.7 2 29.3-2c-.3-15.8-13.2-28.5-29-28.5s-28.8 12.8-29 28.5z"/></g><path class="st3" d="M398.7 161.8v278.6h-158V161.8h158m1-1h-160v280.6h160V160.8z"/><path class="st6" d="M160 321h319.6v160.6H160z"/><path class="st5" d="M271.1 354.9h40.6v1h-40.6zm0 22.7h40.6v1h-40.6zm0 22.6h40.6v1h-40.6zm79.5 1.5L338 386.1l.7-.7 11.7 14.4 20.8-44.6.9.5z"/><g class="st7"><path class="st5" d="M398.7 161.8v278.6h-158V161.8h158m1-1h-160v280.6h160V160.8z"/></g><path class="st8" d="M599.8 81.1h80v159.4h-80z"/><path class="st9" d="M764.6 92.3c-7.5 0-13.6-6.1-13.6-13.6s6.1-13.6 13.6-13.6 13.6 6.1 13.6 13.6-6.1 13.6-13.6 13.6zm0-26.1c-6.9 0-12.5 5.6-12.5 12.5s5.6 12.5 12.5 12.5 12.5-5.6 12.5-12.5-5.6-12.5-12.5-12.5zm0 111.6c-7.5 0-13.6-6.1-13.6-13.6s6.1-13.6 13.6-13.6 13.6 6.1 13.6 13.6-6.1 13.6-13.6 13.6zm0-26.1c-6.9 0-12.5 5.6-12.5 12.5s5.6 12.5 12.5 12.5 12.5-5.6 12.5-12.5-5.6-12.5-12.5-12.5z"/><circle class="st9" cx="679.8" cy="121.1" r="13.1"/><path transform="rotate(-63.069 721.922 142.528)" class="st9" d="M721.3 107.8h1.1v69.5h-1.1z"/><path transform="rotate(-26.942 721.956 99.67)" class="st9" d="M687.2 99.1h69.5v1.1h-69.5z"/><path class="st10" d="M0 602h199.9v80H0z"/><path class="st11" d="M228.4 718.3l-13-16.7c-10.2 2.7-20.9 2.7-31.1 0l-12.9 16.7-23.5-13.6 8-19.6c-7.4-7.5-12.7-16.8-15.5-26.9l-20.9-2.9v-27.1l20.9-2.9c1.4-5 3.4-9.9 6.1-14.4 2.6-4.6 5.8-8.7 9.5-12.5l-8-19.6 23.5-13.6 13 16.7c10.2-2.6 20.9-2.7 31.1 0l12.9-16.7 23.5 13.6-8 19.6c7.4 7.5 12.7 16.8 15.5 26.9l20.9 2.9v27.1l-20.9 2.9c-1.4 5-3.4 9.9-6.1 14.4-2.6 4.6-5.8 8.7-9.5 12.5l8 19.6-23.5 13.6zm-79.2-14l22 12.7 12.8-16.5.3.1c10.2 2.7 21 2.7 31.2 0l.3-.1 12.8 16.5 22-12.7-7.9-19.4.2-.2c3.7-3.7 6.9-7.9 9.6-12.5 2.6-4.6 4.7-9.5 6-14.5l.1-.3 20.7-2.8v-25.4l-20.7-2.8-.1-.3c-2.8-10.2-8.2-19.6-15.6-27l-.2-.2 7.9-19.4-22-12.7-12.8 16.5-.3-.1c-10.2-2.7-21-2.7-31.2 0l-.3.1-12.8-16.5-22 12.7 7.9 19.4-.2.2c-3.7 3.7-6.9 7.9-9.6 12.5s-4.7 9.5-6 14.5l-.1.3-20.7 2.8v25.4l20.7 2.8.1.3c2.8 10.2 8.2 19.6 15.6 27l.2.2-7.9 19.4z"/><path class="st11" d="M199.9 665.1c-12.9 0-23.3-10.5-23.3-23.3s10.5-23.3 23.3-23.3 23.3 10.5 23.3 23.3-10.4 23.3-23.3 23.3zm0-45.6c-12.3 0-22.3 10-22.3 22.3s10 22.3 22.3 22.3 22.3-10 22.3-22.3-10-22.3-22.3-22.3z"/><path class="st1" d="M679.8 471h239.9v10H679.8z"/><path class="st12" d="M759.8 481h160v160h-160z"/><path class="st1" d="M759.3 481h1v160h-1z"/><path class="st1" d="M918.7 482v158H680.8V482h237.9m1-1H679.8v160h239.9V481z"/><path class="st1" d="M819.5 580.5L790.6 561l28.9-19.6.6.8-27.7 18.8 27.7 18.7zm40.5 0l-.6-.8 27.7-18.7-27.7-18.8.6-.8 28.9 19.6z"/><path transform="rotate(-71.549 839.79 560.886)" class="st1" d="M807.7 560.4h64.2v1h-64.2z"/><path class="st9" d="M479.6 642.3c-22.2 0-40.3-18.1-40.3-40.3s18.1-40.3 40.3-40.3S520 579.8 520 602s-18.1 40.3-40.4 40.3zm0-79.5c-21.6 0-39.2 17.6-39.2 39.2s17.6 39.2 39.2 39.2 39.2-17.6 39.2-39.2-17.6-39.2-39.2-39.2z"/><path class="st9" d="M463.4 588.1h32.5v1.1h-32.5zm0 13.4h32.5v1.1h-32.5zm0 13.3h32.5v1.1h-32.5z"/><path class="st11" d="M870.1 320.8h-1v-28.1c0-16.2-13.2-29.3-29.3-29.3s-29.3 13.2-29.3 29.3h-1c0-16.7 13.6-30.3 30.3-30.3s30.3 13.6 30.3 30.3v28.1z"/><path class="st11" d="M880.2 401.2h-81v-81h81v81zm-79.9-1h79v-79h-79v79z"/><circle class="st10" cx="839.7" cy="360.8" r="17.4"/></svg>