<svg width="131" height="119" viewBox="0 0 131 119" fill="none" xmlns="http://www.w3.org/2000/svg">
<circle cx="5.5" cy="5.5" r="5.5" fill="#CFE3FF"/>
<circle cx="5.5" cy="32.5" r="5.5" fill="#CFE3FF"/>
<circle cx="5.5" cy="86.5" r="5.5" fill="#CFE3FF"/>
<circle cx="5.5" cy="59.5" r="5.5" fill="#CFE3FF"/>
<circle cx="5.5" cy="113.5" r="5.5" fill="#CFE3FF"/>
<circle cx="65.5" cy="5.5" r="5.5" fill="#CFE3FF"/>
<circle cx="65.5" cy="32.5" r="5.5" fill="#CFE3FF"/>
<circle cx="65.5" cy="86.5" r="5.5" fill="#CFE3FF"/>
<circle cx="65.5" cy="59.5" r="5.5" fill="#CFE3FF"/>
<circle cx="65.5" cy="113.5" r="5.5" fill="#CFE3FF"/>
<circle cx="35.5" cy="5.5" r="5.5" fill="#CFE3FF"/>
<circle cx="35.5" cy="32.5" r="5.5" fill="#CFE3FF"/>
<circle cx="35.5" cy="86.5" r="5.5" fill="#CFE3FF"/>
<circle cx="35.5" cy="59.5" r="5.5" fill="#CFE3FF"/>
<circle cx="35.5" cy="113.5" r="5.5" fill="#CFE3FF"/>
<circle cx="95.5" cy="5.5" r="5.5" fill="#CFE3FF"/>
<circle cx="95.5" cy="32.5" r="5.5" fill="#CFE3FF"/>
<circle cx="95.5" cy="86.5" r="5.5" fill="#CFE3FF"/>
<circle cx="95.5" cy="59.5" r="5.5" fill="#CFE3FF"/>
<circle cx="95.5" cy="113.5" r="5.5" fill="#CFE3FF"/>
<circle cx="125.5" cy="5.5" r="5.5" fill="#CFE3FF"/>
<circle cx="125.5" cy="32.5" r="5.5" fill="#CFE3FF"/>
<circle cx="125.5" cy="86.5" r="5.5" fill="#CFE3FF"/>
<circle cx="125.5" cy="59.5" r="5.5" fill="#CFE3FF"/>
<circle cx="125.5" cy="113.5" r="5.5" fill="#CFE3FF"/>
</svg>
