<svg width="417" height="378" viewBox="0 0 417 378" fill="none" xmlns="http://www.w3.org/2000/svg">
<path d="M197.466 177.488C197.466 177.488 179.178 216.744 171.692 213.063C164.206 209.383 195.393 170.715 195.393 170.715C195.393 170.715 172.612 132.965 158.367 125.476C158.367 125.476 154.89 173.192 148.589 167.877C142.288 162.56 143.476 112.748 143.476 112.748C143.476 112.748 113.02 83.8393 93.199 99.8119C73.3779 115.785 75.3157 131.503 79.5974 136.103C83.8788 140.704 117.351 161.944 113.527 165.472C109.703 168.998 82.5581 160.921 72.7296 149.086C72.7296 149.086 63.1131 190.387 82.3942 200.56C101.675 210.734 114.979 203.757 126.773 210.249C138.568 216.741 144.681 224.946 137.006 224.154C129.331 223.36 111.767 209.065 97.4304 210.46C83.0936 211.858 72.5103 211.575 86.9437 225.813C101.377 240.048 133.018 257.684 147.938 249.355C148.588 248.991 149.209 248.643 149.803 248.312C148.705 249.087 147.938 249.355 147.938 249.355C149.795 253.094 148.514 264.311 147.191 272.695C146.876 274.063 146.532 276.016 146.158 278.73C145.939 279.922 145.751 280.893 145.618 281.57C141.351 299.501 120.616 321.742 120.616 321.742L123.543 325C149.232 305.711 149.848 276.497 149.848 276.497C152.354 254.643 162.857 241.023 162.857 241.023C162.857 241.023 207.614 244.934 209.42 211.788C209.42 211.788 207.725 189.604 197.466 177.488Z" fill="#DFEBFD"/>
<path d="M328.489 160.2C328.489 160.2 306.681 201.499 284.528 230.008C275.716 241.355 266.844 250.674 259.276 254.561C251.865 258.364 245.593 264.273 240.404 270.82C226.961 287.775 220.757 309 220.757 309L164.111 227.873C164.111 227.873 166.044 148.571 172.845 135.306C182.758 115.976 187.546 76.9179 191.355 69.1418C194.18 63.3732 202.248 33.5763 203.021 31.3868C203.357 30.4438 206.042 28.9978 209.528 29C212.326 29 217.075 31.5602 218.273 36.8194C224.331 63.4079 217.04 80.9457 217.122 81.724C219.259 102.158 212.835 117.326 217.34 121.343C217.508 121.491 217.819 121.421 218.26 121.155C226.068 116.409 274.536 49.5164 280.507 48.0726C286.811 46.5508 328.489 160.2 328.489 160.2Z" fill="#EFA26F"/>
<path d="M237.87 293.69C237.87 293.69 237.095 329.615 234.879 378H91.4056C124.201 312.298 152.712 257 152.712 257C152.712 257 234.405 259.344 237.87 293.69Z" fill="#F99746"/>
<path d="M377.303 21.1567L359.84 45.0566L342.702 68.5116C341.658 69.6886 340.447 70.0994 339.139 69.9802C335.028 69.6163 329.94 64.0782 325.975 61.0132L325.571 60.7046C320.344 56.667 319.605 49.3687 323.93 44.4904L350.123 14.9311V14.929L357.891 6.16421C362.218 1.28164 370.033 0.592049 375.258 4.62963L375.662 4.93826C380.89 8.97797 381.628 16.2741 377.303 21.1567Z" fill="#FFB27D"/>
<path d="M360.1 45.0878L342.654 68.5135C341.591 69.689 340.358 70.0993 339.026 69.9802L350.208 15C350.231 15.3082 352.132 39.9775 360.1 45.0878Z" fill="#EFA26F"/>
<path d="M284.233 230.012C275.455 241.407 266.616 250.767 259.076 254.671C251.694 258.49 245.445 264.425 240.275 271C234.328 268.355 227.547 265.25 220.92 262.176C212.85 258.433 212.541 247.499 220.445 243.445C220.522 243.406 220.598 243.367 220.672 243.326C228.079 239.282 235.667 225 235.667 225L284.233 230.012Z" fill="#D38254"/>
<path d="M202.1 33L197.83 51.1651C197.83 51.1651 201.563 52.7746 203.96 51.5242C206.358 50.2761 208.314 33.9787 202.1 33Z" fill="#FFC197"/>
<path d="M334.044 239H235.478C225.783 239 217.85 231.473 217.85 222.275V16.7251C217.85 7.52498 225.783 0 235.478 0H334.044C343.739 0 351.67 7.52498 351.67 16.7251V222.275C351.67 231.473 343.739 239 334.044 239Z" fill="#2B478B"/>
<path d="M345.348 18.3528V218.647C345.348 225.442 339.486 231 332.325 231H237.193C230.033 231 224.172 225.442 224.172 218.647V18.3528C224.172 11.5585 230.033 6.00002 237.193 6.00002H332.325C339.486 6.00002 345.348 11.5585 345.348 18.3528Z" fill="#C0D8FB"/>
<path d="M331.65 6.00002L238.282 231H237.112C229.996 231 224.172 225.442 224.172 218.647V18.3528C224.172 11.5585 229.996 6.00002 237.112 6.00002H331.65Z" fill="#CBE1FD"/>
<path d="M304.798 14H265.776C262.597 14 259.998 11.4983 259.998 8.43864V7.56353C259.998 4.50382 262.597 2 265.776 2H304.798C307.977 2 310.576 4.50382 310.576 7.56353V8.43864C310.576 11.4983 307.977 14 304.798 14Z" fill="#2B478B"/>
<path d="M368.213 112.888L365.607 113.842L348.079 120.256C347.669 120.406 347.253 120.535 346.838 120.634C341.034 122.086 334.859 119.109 332.683 113.594L332.425 112.946C330.093 107.035 333.205 100.359 339.343 98.1137L355.684 92.1348L356.871 91.6997L359.476 90.7461C365.614 88.5004 372.541 91.4976 374.873 97.4084L375.131 98.0566C377.463 103.967 374.35 110.643 368.213 112.888Z" fill="#FFB27D"/>
<path d="M353.932 112.678C351.101 113.73 345.974 115.598 343.233 115.983C342.458 116.094 341.027 115.68 339.695 114.246C338.893 113.388 338.129 112.166 337.562 110.472C337.294 109.675 337.073 108.883 336.981 108.064C336.875 107.104 336.903 106.147 337.073 105.198C337.228 104.345 337.824 103.565 338.692 103.155C338.695 103.151 338.701 103.151 338.706 103.149C341.621 101.782 345.55 100.119 348.994 99.1914C351.377 98.5459 353.786 99.577 354.54 101.622L354.895 102.577L356.717 107.468C357.47 109.5 356.245 111.822 353.932 112.678Z" fill="#FFD3B6"/>
<path d="M353.993 112.972C351.219 113.931 346.197 115.633 343.511 115.985C342.752 116.085 341.349 115.708 340.045 114.401C339.904 114.105 339.776 113.791 339.655 113.457C339.393 112.731 339.177 112.006 339.086 111.26C338.984 110.387 339.01 109.515 339.177 108.65C339.33 107.87 339.913 107.161 340.763 106.786C340.767 106.784 340.774 106.784 340.776 106.782C343.632 105.536 347.482 104.02 350.858 103.175C352.353 102.798 353.857 103.047 354.937 103.765L356.722 108.223C357.46 110.075 356.259 112.192 353.993 112.972Z" fill="#FFC197"/>
<path d="M360.698 136.18L347.14 139.738C343.02 140.819 338.731 138.454 337.609 134.484L337.19 133.006C336.069 129.035 338.522 124.901 342.643 123.82L356.203 120.262C360.323 119.181 364.61 121.546 365.732 125.516L366.15 126.997C367.272 130.967 364.818 135.099 360.698 136.18Z" fill="#FFB27D"/>
<path d="M353.89 135.226C351.255 135.825 346.492 136.883 343.995 136.998C343.087 137.041 341.268 136.388 340.081 134.354C339.788 133.861 339.541 133.292 339.347 132.632C339.173 132.032 339.04 131.438 339.028 130.836C339.011 130.126 339.115 129.429 339.347 128.744C339.553 128.128 340.156 127.596 340.97 127.348C340.975 127.346 340.98 127.346 340.982 127.344C343.716 126.521 347.388 125.539 350.565 125.067C352.759 124.739 354.839 125.638 355.353 127.179L355.723 128.278L356.828 131.582C357.339 133.113 356.043 134.74 353.89 135.226Z" fill="#FFD3B6"/>
<path d="M353.941 135.255C351.351 135.844 346.667 136.884 344.212 136.998C343.32 137.041 341.531 136.397 340.365 134.397C340.208 133.847 340.093 133.297 340.081 132.739C340.065 132.043 340.167 131.353 340.396 130.682C340.598 130.077 341.191 129.552 341.989 129.308C341.996 129.306 342 129.306 342.003 129.302C344.691 128.495 348.301 127.529 351.425 127.066C353.21 126.798 354.92 127.361 355.744 128.42L356.829 131.67C357.332 133.175 356.058 134.776 353.941 135.255Z" fill="#FFC197"/>
<path d="M139.876 283.78C139.876 283.78 167.534 308.791 186.179 318.448L200.296 308.994V322.939C200.296 322.939 228.059 327.576 236.817 322.939V284.908L158.837 248L139.876 283.78Z" fill="#ED7D2B"/>
<path d="M163.537 225C163.537 225 145.857 250.274 128.285 277.296C128.285 277.296 165.316 301.637 185.393 308.778L211.727 279.958L207.968 314.649C207.968 314.649 231.273 322.766 242.085 320.647C242.085 320.647 241.402 289.176 241.409 268.556C241.409 268.556 177.344 251.398 163.537 225Z" fill="#F3F8FF"/>
<path d="M168.326 288.964C168.348 286.755 170.252 284.979 172.58 285C174.908 285.021 176.777 286.828 176.755 289.039C176.734 291.247 174.829 293.021 172.502 293C170.174 292.981 168.305 291.172 168.326 288.964Z" fill="#F99746"/>
<path d="M368.256 88.142C368.159 88.1743 368.063 88.2045 367.962 88.2346L350.146 92.5293C342.312 94.4204 334.211 90.4401 332.144 83.6879L331.084 80.2267C329.095 73.7437 333.367 66.9635 340.646 64.7644L346.528 63.3472L358.464 60.4697C366.297 58.5808 374.399 62.5611 376.466 69.3133L377.526 72.7723C379.485 79.1692 375.356 85.8482 368.256 88.142Z" fill="#FFB27D"/>
<path d="M359.865 83.0459L351.801 86.7264C351.791 86.7307 351.776 86.7328 351.75 86.7393C351.427 86.8281 351.1 86.8931 350.776 86.9429C350.641 86.9645 350.502 86.9797 350.367 86.9948C350.31 87.0013 350.254 87.0013 350.196 86.997C349.307 86.9667 348.7 86.0119 349.083 85.161C349.846 83.481 350.053 81.5347 349.54 79.623L349.348 78.9107C349.348 78.9042 349.344 78.8956 349.341 78.8891L348.717 76.5703C348.221 74.7214 347.168 73.1756 345.794 72.0563C345.629 71.9199 345.458 71.7922 345.285 71.6709C343.69 70.5516 344.097 68.0186 345.962 67.4946C345.979 67.4881 345.994 67.4838 346.014 67.4773L354.862 66.122C357.051 65.5202 359.158 67.2262 359.754 69.4431L360.466 72.0844L361.979 77.7156C362.573 79.9348 362.054 82.444 359.865 83.0459Z" fill="#FFD3B6"/>
<path d="M359.802 83.1283L351.519 86.7348C351.508 86.7391 351.493 86.7412 351.466 86.7475C351.273 86.7836 350.665 86.8812 349.87 87C348.957 86.9703 348.334 86.0347 348.727 85.201C349.51 83.5547 349.723 81.6475 349.196 79.7743L348.999 79.0763C348.999 79.07 348.995 79.0615 348.992 79.0551L348.351 76.783C347.842 74.9713 346.76 73.4565 345.348 72.3597C345.642 71.9461 346.079 71.6172 346.652 71.4624C346.668 71.4581 346.687 71.4539 346.705 71.4475L355.796 70.1195C357.688 69.6231 359.519 70.7305 360.419 72.3873L361.973 77.9053C362.583 80.0798 362.05 82.5386 359.802 83.1283Z" fill="#FFC197"/>
<path d="M217.85 176C217.85 176 213.968 143.801 210.386 137.522C206.804 131.24 203.773 118.667 209.284 109.324C214.794 99.9774 216.698 82 216.698 82C218.836 102.523 212.408 117.757 216.916 121.791C217.084 121.939 217.395 121.87 217.836 121.602L217.85 176Z" fill="#D38254"/>
<path d="M112.766 294.968C112.766 294.968 106.174 277.862 95.2267 270.513C95.2267 270.513 90.1341 305.33 83.3687 304.031C76.6033 302.731 91.9894 265.621 91.9894 265.621C91.9894 265.621 65.1081 240.763 52.1207 237.906C52.1207 237.906 60.694 276.224 54.4719 273.384C48.2524 270.544 37.3807 231.064 37.3807 231.064C37.3807 231.064 14.6959 219.099 0.787048 226.313V266.481C11.4334 270.483 27.896 276.341 26.3011 278.975C24.7062 281.614 11.7414 282.011 0.787048 279.183V307.161C3.27593 310.175 6.34054 312.421 10.1114 313.255C27.7009 317.148 36.5195 308.812 47.3435 311.407C58.1675 314.001 64.9228 319.155 58.6933 320.171C52.4637 321.185 35.25 313.678 24.2956 317.84C13.3388 321.999 4.94085 324.04 19.6785 332.166C34.4136 340.295 63.5007 347.425 73.2708 337.678C73.2708 337.678 73.2708 337.678 73.2731 337.676C73.6987 337.251 74.107 336.844 74.4951 336.458C74.4974 336.454 74.4995 336.452 74.5018 336.449C73.8169 337.303 73.2717 337.68 73.2717 337.68C75.6202 340.228 77.271 349.34 78.2165 356.225C78.2923 357.364 78.4849 358.972 78.8315 361.173C78.9456 362.193 79.0303 363.023 79.0857 363.589C79.3416 368.039 78.5563 373.091 77.3194 378H82.0141C83.5081 366.945 81.2179 358.679 81.2083 358.645H81.209C78.002 340.902 83.0414 327.933 83.0414 327.933C83.1213 327.918 119.194 321.427 112.766 294.968Z" fill="#E1EEFB"/>
<path d="M415.041 264.849C408.836 243.248 370.161 249.999 370.161 249.999C370.161 249.999 343.9 287.8 336.26 288.7C328.622 289.599 352.016 252.249 352.016 252.249C337.214 250.9 299.495 267.999 299.495 267.999C299.495 267.999 301.883 312.1 294.242 311.2C286.604 310.301 294.242 272.05 294.242 272.05C279.918 276.099 266.549 291.85 266.549 291.85C249.838 317.499 285.647 336.401 285.647 336.401C285.647 336.401 286.126 351.701 276.1 369.252H276.098C276.098 369.252 273.837 372.492 271.536 378H275.441C275.759 377.012 276.112 376.058 276.501 375.144C276.501 375.135 276.503 375.131 276.508 375.127C276.512 375.114 276.519 375.101 276.526 375.088C276.792 374.518 277.176 373.709 277.657 372.723C277.657 372.721 277.657 372.721 277.659 372.719C277.659 372.717 277.662 372.717 277.662 372.715C278.854 370.514 279.66 368.888 280.17 367.714C280.172 367.71 280.172 367.706 280.172 367.703C283.748 360.794 288.898 351.789 292.333 349.902C292.333 349.902 291.901 349.328 291.498 348.212C291.763 348.752 292.043 349.313 292.333 349.902C299.017 363.402 332.439 365.652 351.062 362.051C369.682 358.451 361.566 353.502 351.538 345.466C341.513 337.433 320.503 339.551 314.298 336.401C308.09 333.252 317.161 330.1 329.576 331C341.989 331.901 348.196 343.6 368.252 345.402C388.305 347.201 403.583 311.651 403.583 311.651C389.738 315.7 364.908 308.499 363.953 303.999C362.999 299.499 399.763 299.95 405.492 298.6C411.223 297.249 421.249 286.45 415.041 264.849Z" fill="#DFEBFD"/>
</svg>
