<svg width="472" height="357" viewBox="0 0 472 357" fill="none" xmlns="http://www.w3.org/2000/svg">
<path d="M341.802 278.252H106.718V112.167C106.718 107.615 110.405 103.923 114.954 103.923H333.566C338.115 103.923 341.802 107.615 341.802 112.167V155.081H333.076V112.463H115.028V246.565H333.076V232.585H341.802V278.252Z" fill="url(#paint0_linear)"/>
<path d="M333.076 246.565H115.028V112.463H333.076V155.081H263.56C261.632 155.081 260.07 156.645 260.07 158.574V229.091C260.07 231.02 261.632 232.585 263.56 232.585H333.076V246.565Z" fill="url(#paint1_linear)"/>
<path d="M38.0129 112.174H91.0302C89.9966 106.972 85.3476 103.107 80.0237 103.107C78.8142 103.107 77.6246 103.299 76.4876 103.68L76.1971 103.776L76.0221 103.525C73.0808 99.33 68.2844 96.8264 63.1888 96.8264C57.2218 96.8264 51.8495 100.156 49.1703 105.518L49.0229 105.812L48.7048 105.734C48.0195 105.563 47.3117 105.477 46.6006 105.477C42.5369 105.477 39.0034 108.264 38.0129 112.174ZM92 113H37L37.0957 112.508C37.9784 107.956 41.9766 104.651 46.6006 104.651C47.2686 104.651 47.9333 104.72 48.5833 104.858C51.4487 99.3854 57.0158 96 63.1888 96C68.4499 96 73.4092 98.5365 76.5177 102.802C77.6505 102.456 78.8289 102.281 80.0237 102.281C86.008 102.281 91.0147 106.589 91.9267 112.524L92 113Z" fill="#6AAFE8"/>
<path d="M278.924 15.2929C278.672 17.9635 277.835 34.8845 295.5 44.0561C313.166 34.8845 312.328 17.9635 312.076 15.2929C301.106 15.2242 296.641 12.1591 295.5 11.1861C294.359 12.1591 289.893 15.2242 278.924 15.2929ZM295.5 45L295.31 44.9023C275.436 34.7234 278.106 15.0111 278.135 14.813L278.187 14.4537H278.548C291.184 14.4537 295.155 10.3689 295.193 10.3284L295.501 10L295.808 10.3293C295.845 10.369 299.816 14.4537 312.451 14.4537H312.812L312.865 14.813C312.894 15.0111 315.564 34.7234 295.689 44.9023L295.5 45Z" fill="#6AAFE8"/>
<path d="M403.517 303.674C400.554 290.12 406.956 286.737 413.146 283.467C418.205 280.793 422.984 278.269 422.729 270.28C422.392 259.691 429.598 255.839 435.955 252.439C440.685 249.91 445.151 247.522 445.817 242.703C447.421 231.109 458.103 216.699 458.21 216.555L458.874 217.052C458.767 217.193 448.212 231.436 446.638 242.818C445.914 248.054 441.265 250.539 436.345 253.171C429.9 256.617 423.236 260.18 423.557 270.254C423.828 278.76 418.594 281.525 413.533 284.2C407.344 287.47 401.498 290.558 404.326 303.496L403.517 303.674Z" fill="url(#paint2_linear)"/>
<path d="M398.937 293.567C401.63 297.302 404.075 299.204 406.403 299.377C409.657 299.618 412.622 296.525 416.056 292.944C420.48 288.331 425.494 283.103 433.075 282.447C442.179 281.658 442.989 273.471 443.773 265.554C444.474 258.478 445.135 251.794 451.61 250.854C457.713 249.969 461.639 247.919 463.282 244.758C464.652 242.124 464.366 238.722 462.452 234.92C460.64 231.321 463.254 226.25 466.022 220.885C469.026 215.063 472.13 209.043 469.019 205.332C468.55 204.773 467.982 204.489 467.282 204.463C463.767 204.347 457.804 210.49 451.493 217.003C444.178 224.554 436.615 232.357 431.081 232.358L430.87 232.354C425.869 232.168 424.137 238.006 422.134 244.764C419.933 252.193 417.437 260.613 409.722 262.452C403.566 263.92 400.873 264.738 400.128 266.006C399.601 266.9 399.964 268.192 400.565 270.334C401.006 271.911 401.555 273.874 401.969 276.456C403.586 286.548 399.873 292.305 398.937 293.567ZM406.768 300.219C406.626 300.219 406.484 300.214 406.341 300.204C403.664 300.005 401.04 297.968 398.082 293.796L397.897 293.534L398.104 293.288C398.151 293.23 402.893 287.447 401.152 276.587C400.745 274.053 400.203 272.115 399.767 270.558C399.129 268.285 398.709 266.784 399.414 265.586C400.308 264.065 402.724 263.268 409.531 261.645C416.779 259.917 419.202 251.741 421.34 244.528C423.354 237.735 425.261 231.327 430.901 231.525C436.083 231.723 443.954 223.593 450.897 216.426C457.341 209.776 463.422 203.511 467.311 203.635C468.245 203.669 469.033 204.06 469.653 204.799C473.119 208.932 469.885 215.203 466.759 221.266C464.091 226.438 461.571 231.324 463.192 234.547C465.23 238.595 465.516 242.26 464.017 245.141C462.244 248.551 458.11 250.75 451.729 251.675C445.895 252.523 445.266 258.891 444.597 265.635C443.819 273.506 442.935 282.424 433.146 283.273C425.877 283.903 420.977 289.012 416.654 293.519C413.215 297.104 410.227 300.219 406.768 300.219Z" fill="url(#paint3_linear)"/>
<path d="M389.813 185.112C389.165 185.112 388.679 185.264 388.317 185.572C386.793 186.87 386.911 191.297 387.127 199.335C387.198 202.002 387.279 205.024 387.319 208.522C387.411 216.466 389.805 221.535 391.552 225.236C393.958 230.334 395.41 233.409 387.553 237.943C384.473 239.721 382.691 241.766 382.107 244.196C380.974 248.912 384.615 254.53 388.138 259.963C389.505 262.073 390.92 264.253 392.041 266.363C393.496 269.098 394.969 273.299 396.528 277.747C399.56 286.391 402.995 296.189 406.855 296.54C408.328 296.672 409.878 295.336 411.461 292.563C415.171 286.063 414.96 280.447 414.717 273.942C414.392 265.247 414.022 255.391 423.217 240.842C426.91 234.997 428.19 230.392 427.128 226.765C425.828 222.326 421.254 220.188 417.218 218.303C414.229 216.907 411.646 215.701 411.123 213.77C410.865 212.815 411.126 211.792 411.92 210.639C414.423 207.01 415.252 204.278 414.456 202.284C413.309 199.409 408.648 198.077 404.239 197.153C398.686 195.989 396.795 192.454 395.276 189.615C394.138 187.489 393.155 185.653 390.954 185.235C390.528 185.153 390.148 185.112 389.813 185.112ZM407.07 297.379C406.974 297.379 406.877 297.375 406.78 297.365C402.389 296.965 399.013 287.335 395.748 278.022C394.199 273.605 392.736 269.432 391.31 266.754C390.206 264.675 388.801 262.509 387.442 260.414C383.825 254.834 380.085 249.064 381.303 244.002C381.942 241.338 383.851 239.122 387.139 237.225C394.335 233.072 393.229 230.729 390.803 225.591C389.023 221.821 386.585 216.658 386.491 208.533C386.451 205.04 386.371 202.021 386.298 199.357C386.069 190.793 385.954 186.496 387.781 184.941C388.537 184.297 389.595 184.131 391.109 184.419C393.7 184.913 394.819 187.008 396.006 189.223C397.519 192.052 399.234 195.256 404.409 196.341C409.265 197.358 413.937 198.745 415.225 201.977C416.132 204.248 415.275 207.236 412.602 211.11C411.954 212.049 411.732 212.848 411.923 213.552C412.346 215.113 414.766 216.243 417.568 217.551C421.555 219.415 426.518 221.733 427.923 226.533C429.056 230.402 427.745 235.228 423.917 241.285C414.859 255.617 415.224 265.338 415.544 273.912C415.783 280.267 416.008 286.268 412.18 292.974C410.491 295.935 408.816 297.379 407.07 297.379Z" fill="url(#paint4_linear)"/>
<path d="M407.157 302.519L406.368 302.269C410.794 288.261 402.786 256.834 400.401 249.186C399.227 245.425 400.311 239.763 401.361 234.288C402.715 227.217 404.116 219.904 400.544 217.163C393.837 212.016 394.191 200.106 394.208 199.601L395.036 199.632C395.032 199.75 394.682 211.619 401.048 216.505C405.027 219.558 403.577 227.126 402.174 234.444C401.145 239.819 400.08 245.376 401.19 248.939C404.143 258.397 411.573 288.545 407.157 302.519Z" fill="url(#paint5_linear)"/>
<path d="M401.225 299.278C397.989 299.278 394.986 287.853 390.874 282.615C386.024 276.434 384.039 266.721 378.306 259.657C372.574 252.594 356.478 250.387 363.534 239.129C365.092 236.644 366.079 234.364 366.666 232.247C367.844 231.685 368.658 230.483 368.658 229.091V208.6C368.912 208.552 369.173 208.527 369.434 208.527C371.139 208.527 372.892 209.544 373.676 211.536C379.409 226.105 390.605 223.643 389.318 230.013C386.403 244.451 395.284 246.412 404.116 252.815C412.948 259.216 404.116 265.505 403.676 275.438C403.235 285.372 406.97 292.548 403.001 298.067C402.396 298.908 401.807 299.278 401.225 299.278Z" fill="url(#paint6_linear)"/>
<path d="M409.179 299C409.13 298.706 404.211 269.568 393.196 261.582C381.964 253.44 379.923 245.918 376 228.179L376.812 228C380.687 245.519 382.698 252.946 393.684 260.911C404.975 269.096 409.799 297.653 410 298.864L409.179 299Z" fill="white"/>
<path d="M399.522 298.302C399.522 298.302 402.784 290.226 396.847 278.747C390.91 267.266 386.105 269.032 400.417 260.201C414.727 251.37 400.506 223.552 412.689 220.021C424.871 216.488 435.456 171.464 444.718 177.198C453.981 182.93 441.63 205.008 448.246 211.631C454.862 218.255 455.744 226.683 442.072 233.506C428.399 240.331 451.775 266.383 433.251 274.331C414.727 282.278 420.04 313.443 399.522 298.302Z" fill="url(#paint7_linear)"/>
<path d="M405.313 307C405.292 306.896 403.316 296.546 409.56 283.174C415.921 269.55 418.966 254.656 417.706 243.333C417.022 237.2 420.911 234.802 424.674 232.482C428.378 230.198 432.208 227.836 431.997 221.795C431.806 216.337 434.093 203.542 434.191 203L435 203.149C434.976 203.28 432.63 216.397 432.819 221.766C433.046 228.293 429.008 230.782 425.102 233.19C421.397 235.476 417.897 237.633 418.523 243.239C419.799 254.71 416.728 269.77 410.304 283.527C404.183 296.636 406.098 306.735 406.119 306.835L405.313 307Z" fill="white"/>
<path d="M420.349 249.919C424.5 246.094 429.99 245.542 428.847 251.217C427.703 256.89 423.78 258.513 425.743 262.079C427.703 265.646 430.971 269.213 425.416 273.591C419.859 277.968 416.754 278.454 415.119 286.724C413.485 294.992 413.812 300.638 406.621 300.991C399.43 301.343 402.209 290.938 404.496 286.236C404.496 286.236 407.928 280.871 405.64 273.826C403.352 266.781 398.94 262.976 408.255 260.583C417.57 258.188 417.55 252.498 420.349 249.919Z" fill="white"/>
<path d="M406.914 306.794C406.89 305.772 406.396 281.686 410.896 277.633C415.491 273.492 416.374 266.174 416.491 262.182C416.645 256.979 423.358 253.89 423.645 253.762L423.984 254.517C423.919 254.547 417.457 257.523 417.319 262.206C417.171 267.245 416.033 274.119 411.449 278.249C407.23 282.051 407.736 306.529 407.742 306.776L406.914 306.794Z" fill="url(#paint8_linear)"/>
<path d="M423.815 296.964L416.35 325.315H399.669L392.206 296.964H423.815Z" fill="url(#paint9_linear)"/>
<path d="M423.815 296.964C423.815 296.964 407.383 300.053 407.383 325.315H399.669L392.206 296.964H423.815Z" fill="url(#paint10_linear)"/>
<path d="M130 225H108V223H130V225Z" fill="#1487E3"/>
<path d="M103 154H68V109H68.827V153.169H103V154Z" fill="#78C2FF"/>
<path d="M251.82 125H251V78.2863H295.179V39H296V79.1233H251.82V125Z" fill="#78C2FF"/>
<path d="M396 176H349V175.164H395.16V148H396V176Z" fill="#78C2FF"/>
<path d="M48.6261 213.935C48.6261 213.935 47.6003 227.533 50.4129 229.16C52.1756 230.18 59.2037 233.618 58.9955 234.264C58.7873 234.909 55.0268 240 55.0268 240C55.0268 240 41.5271 231.606 41.0918 228.962C40.6664 226.377 41.7559 209.052 43.6119 208.253C45.0021 207.655 45.7353 208.15 47.4881 209.378C49.9454 211.101 48.6261 213.935 48.6261 213.935Z" fill="#FF7E55"/>
<path d="M47 315.388C47 315.388 46.6193 318.399 46.5729 318.851C46.5249 319.303 42.3392 318.584 42.3392 318.584L42 315.001C42 315.001 46.4777 314.964 47 315.388Z" fill="#424773"/>
<path d="M46.4673 318.181C46.4673 318.181 47.8409 319.797 49.1724 320.502C50.503 321.206 52.5921 321.485 53.3802 322.216C53.9472 322.742 55.4483 325.007 49.9225 324.961C44.3967 324.916 41.7337 325.282 41.1423 324.413C40.5499 323.545 41.9987 318 41.9987 318C41.9987 318 43.3065 318.46 46.4673 318.181Z" fill="#292C47"/>
<path d="M70 315.388C70 315.388 69.5421 318.399 69.4855 318.851C69.4279 319.303 64.4061 318.584 64.4061 318.584L64 315.001C64 315.001 69.3733 314.964 70 315.388Z" fill="#424773"/>
<path d="M68.9766 318.181C68.9766 318.181 70.479 319.804 71.9334 320.511C73.3878 321.218 78.7389 321.799 79.5985 322.531C80.2192 323.059 81.2512 325.187 72.7542 324.987C66.716 324.845 63.8035 325.308 63.1551 324.436C62.5086 323.565 64.0921 318 64.0921 318C64.0921 318 65.4396 318.493 68.9766 318.181Z" fill="#292C47"/>
<path d="M48.6858 243C48.6858 243 44.4621 249.694 44.7767 255.742C45.0921 261.793 44.401 268.256 43.7658 274.575C43.0589 281.62 41.1314 296.282 41.0266 300.05C40.9209 303.819 41.1646 318 41.1646 318L48.491 317.945C48.491 317.945 51.0921 289.297 52.353 286.322C53.6129 283.346 58.7863 261.824 58.9969 259.444C59.2066 257.064 48.6858 243 48.6858 243Z" fill="#292C47"/>
<path d="M70.6244 244.04C70.6244 244.04 72.2427 260.33 72.6503 263.997C73.057 267.664 72.7791 283.556 72.9816 285.849C73.1866 288.14 71.6208 312.384 71.2353 317L63.4257 316.95C63.4257 316.95 62.8869 297.338 62.8869 287.81C62.8869 278.282 60.4865 267.19 57.7361 260.903C54.9858 254.615 48.6904 254.467 47 242.803C47 242.803 68.3358 240.341 70.6244 244.04Z" fill="#292C47"/>
<path d="M53.4608 186.439C53.4608 186.439 58.507 183.045 62.0509 186.681C65.5947 190.316 67.3363 198.864 64.7922 200.571C62.2471 202.277 57.9297 202.724 55.8805 200.409C53.8313 198.095 51.6437 194.564 51.1067 191.987C50.5679 189.408 52.1808 187.524 53.4608 186.439Z" fill="#EEA886"/>
<path d="M62.6716 200.729C62.6716 200.729 62.608 204.411 62.9861 205.195C63.365 205.98 55.8603 206 55.8603 206C55.8603 206 55.2507 201.732 54.0953 198.126C52.9399 194.519 62.6716 200.729 62.6716 200.729Z" fill="#EEA886"/>
<path d="M54.0711 198.69C54.0711 198.69 54.792 199.45 56.8324 198.589C58.8728 197.728 60.7928 194.179 61.6035 193.644C62.4169 193.108 62.3017 192.567 62.3017 192.567L63.047 193.27L64 193.101C64 193.101 62.5487 190.701 63.5994 189.321C64.6502 187.94 60.3346 181.198 54.099 185.315C54.099 185.315 49.2197 188.078 50.1081 191.104C50.9983 194.13 52.5543 197.445 54.0711 198.69Z" fill="#754836"/>
<path d="M64 204.83C64 204.83 63.9756 203.587 63.2985 203.467C62.6223 203.347 55.8309 202.803 55 203.076V204.524C55 204.524 56.6012 205.345 64 204.83Z" fill="#E2D2CA"/>
<path d="M62.2915 191.617C62.0174 191.261 60.1538 190.41 60.0077 191.649C59.8615 192.889 61.8398 194.222 62.5807 193.969C63.3227 193.715 62.9878 192.518 62.2915 191.617Z" fill="#EEA886"/>
<path d="M51.7882 187C51.7882 187 44.231 188.954 54 198L51.7882 187Z" fill="#754836"/>
<path d="M115.87 225.304L108.359 225.245C109.008 224.928 110.056 224.357 109.824 224.096C109.493 223.725 107.366 224.54 106.502 224.615C105.709 224.683 104.38 224.597 103.372 224.906L101 225.758L103.174 227.453C103.174 227.453 107.103 227.927 108.253 227.995C110.123 228.106 115.844 226.23 115.938 225.946C116.109 225.433 115.87 225.304 115.87 225.304Z" fill="#EEA886"/>
<path d="M73.1782 207.349C68.5614 206.53 63.7016 205.354 63.7016 205.354L55.1036 205C55.1036 205 47.213 206.753 44.1051 208.171C43.8103 208.305 43.8103 215.276 43 217.104L45.5769 222.59C45.5769 222.59 47.0651 233.458 47.3738 238.29C47.5156 240.51 44.3049 259.097 44.3049 259.097C44.3049 259.097 47.7448 260.119 53.6137 260.772C59.4817 261.425 74.1441 260.537 74.2357 259.838C74.3291 259.138 71.3968 233.789 71.2662 232.477C71.0674 230.462 71.843 221.153 71.843 221.153C72.949 222.651 79.3411 228.274 82.4619 230.061C84.6816 231.332 90.1268 230.555 91.7309 230.391C95.2019 230.031 104.792 229.339 104.979 228.995C105.129 228.789 104.428 225.26 104.026 225.125C103.675 225.007 91.296 224.39 88.1907 224.551C86.9308 224.618 82.8207 219.986 82.8207 219.986C82.8207 219.986 75.7256 208.503 73.1782 207.349Z" fill="#FF7E55"/>
<path d="M20 172H43V192L39.489 188.521H20V172Z" fill="#FFCB55"/>
<path d="M366.734 118.266H387.267V97.7332H366.734V118.266ZM388 119H366V97H388V119Z" fill="#6AAFE8"/>
<path d="M392.741 104.318H442.257V100.682H392.741V104.318ZM443 105H392V100H443V105Z" fill="#6AAFE8"/>
<path d="M366.736 129.318H442.264V125.682H366.736V129.318ZM443 130H366V125H443V130Z" fill="#6AAFE8"/>
<path d="M366.736 140.181H414.265V135.819H366.736V140.181ZM415 141H366V135H415V141Z" fill="#6AAFE8"/>
<path d="M392.751 115.181H426.247V110.819H392.751V115.181ZM427 116H392V110H427V116Z" fill="#6AAFE8"/>
<path d="M357.739 152.254H451.26V85.7464H357.739V152.254ZM452 153H357V85H452V153Z" fill="#6AAFE8"/>
<path d="M323 55H316V54.1833H322.185V48H323V55Z" fill="#6AAFE8"/>
<path d="M275 55H268V48H268.817V54.1833H275V55Z" fill="#6AAFE8"/>
<path d="M268.817 7H268V0H275V0.815987H268.817V7Z" fill="#6AAFE8"/>
<path d="M323 7H322.185V0.816684H316V0H323V7Z" fill="#6AAFE8"/>
<path d="M323 37H322V18H323V37Z" fill="#6AAFE8"/>
<path d="M269 37H268V18H269V37Z" fill="#6AAFE8"/>
<path d="M69.0004 104.817C67.7961 104.817 66.8163 105.796 66.8163 107C66.8163 108.204 67.7961 109.183 69.0004 109.183C70.2039 109.183 71.1829 108.204 71.1829 107C71.1829 105.796 70.2039 104.817 69.0004 104.817ZM69.0004 110C67.3456 110 66 108.654 66 107C66 105.346 67.3456 104 69.0004 104C70.6544 104 72 105.346 72 107C72 108.654 70.6544 110 69.0004 110Z" fill="#78C2FF"/>
<path d="M296 34.8163C294.796 34.8163 293.816 35.7953 293.816 36.9996C293.816 38.203 294.796 39.1829 296 39.1829C297.204 39.1829 298.183 38.203 298.183 36.9996C298.183 35.7953 297.204 34.8163 296 34.8163ZM296 40C294.346 40 293 38.6535 293 36.9996C293 35.3456 294.346 34 296 34C297.654 34 299 35.3456 299 36.9996C299 38.6535 297.654 40 296 40Z" fill="#78C2FF"/>
<path d="M395 143.817C393.797 143.817 392.816 144.797 392.816 146C392.816 147.203 393.797 148.183 395 148.183C396.204 148.183 397.184 147.203 397.184 146C397.184 144.797 396.204 143.817 395 143.817ZM395 149C393.346 149 392 147.654 392 146C392 144.346 393.346 143 395 143C396.654 143 398 144.346 398 146C398 147.654 396.654 149 395 149Z" fill="#78C2FF"/>
<path d="M68.8324 24.1676H88.1667V4.83411H68.8324V24.1676ZM89 25H68V4H89V25Z" fill="#A1D4FF"/>
<path d="M79 20H78V10H79V20Z" fill="#A1D4FF"/>
<path d="M83 15H73V14H83V15Z" fill="#A1D4FF"/>
<path d="M377.834 49.1834H406.167V29.8158H377.834V49.1834ZM407 50H377V29H407V50Z" fill="#A1D4FF"/>
<path d="M392.5 42L378 29.6487L378.517 29L392.5 40.9115L406.483 29L407 29.6487L392.5 42Z" fill="#A1D4FF"/>
<path d="M406.416 50L396 38.5771L396.585 38L407 49.4238L406.416 50Z" fill="#A1D4FF"/>
<path d="M377.637 50L377 49.4238L388.363 38L389 38.5771L377.637 50Z" fill="#A1D4FF"/>
<path d="M141.002 64.5626C140.452 64.5626 139.908 64.8463 139.565 65.3761C139.292 65.7976 139.185 66.3108 139.263 66.8214C139.341 67.3319 139.596 67.779 139.979 68.0784C140.362 68.3786 140.828 68.4962 141.293 68.4108C141.756 68.3245 142.163 68.0444 142.435 67.6229C142.708 67.2015 142.816 66.6882 142.737 66.1777C142.659 65.6681 142.405 65.2209 142.022 64.9216C141.712 64.6792 141.356 64.5626 141.002 64.5626ZM140.995 69.0948C140.509 69.0948 140.036 68.9295 139.633 68.6137C138.573 67.7845 138.324 66.1612 139.078 64.996C139.832 63.8299 141.309 63.5562 142.367 64.3863C142.881 64.7876 143.222 65.3853 143.326 66.0694C143.431 66.7525 143.287 67.4393 142.922 68.004C142.557 68.5687 142.013 68.9433 141.391 69.0581C141.26 69.0829 141.127 69.0948 140.995 69.0948ZM139.519 70.1866L139.694 70.26C140.01 70.3941 140.342 70.4776 140.684 70.5097L140.869 70.5272L141.125 71.2627L142.3 71.0451L142.323 70.2582L142.494 70.1737C142.806 70.0213 143.094 69.822 143.354 69.5824L143.497 69.4492L144.151 69.7706L144.841 68.7027L144.351 68.1289L144.418 67.9361C144.541 67.589 144.615 67.2226 144.646 66.848L144.662 66.6432L145.33 66.3623L145.133 65.0694L144.417 65.0437L144.34 64.8564C144.201 64.5149 144.021 64.1962 143.802 63.9098L143.681 63.7528L143.973 63.0347L143.003 62.2744L142.481 62.8125L142.306 62.7391C141.989 62.6059 141.657 62.5224 141.317 62.4902L141.132 62.4719L140.875 61.7364L139.7 61.954L139.677 62.7418L139.506 62.8254C139.194 62.9787 138.906 63.177 138.645 63.4176L138.503 63.5498L137.85 63.2294L137.159 64.2972L137.649 64.8711L137.581 65.063C137.46 65.4101 137.383 65.7764 137.354 66.1511L137.338 66.3558L136.669 66.6377L136.868 67.9296L137.584 67.9553L137.659 68.1427C137.798 68.4851 137.98 68.8037 138.199 69.0893L138.319 69.2463L138.028 69.9653L138.997 70.7255L139.519 70.1866ZM140.742 72L140.443 71.1415C140.176 71.1029 139.914 71.0368 139.659 70.9441L139.049 71.5721L137.282 70.1884L137.624 69.3501C137.458 69.115 137.316 68.8634 137.195 68.599L136.36 68.5696L136 66.2163L136.78 65.8876C136.815 65.5928 136.876 65.3045 136.961 65.0244L136.389 64.3542L137.647 62.4103L138.409 62.785C138.623 62.605 138.851 62.4471 139.092 62.3148L139.119 61.3957L141.257 61L141.556 61.8576C141.823 61.8961 142.087 61.9623 142.341 62.0559L142.951 61.427L144.719 62.8107L144.377 63.6499C144.542 63.884 144.684 64.1356 144.805 64.401L145.64 64.4295L146 66.7828L145.22 67.1115C145.184 67.4062 145.124 67.6955 145.039 67.9755L145.612 68.6449L144.353 70.5896L143.591 70.215C143.378 70.395 143.15 70.552 142.909 70.6851L142.881 71.6033L140.742 72Z" fill="#A1D4FF"/>
<path d="M124.006 58.034C122.548 58.034 121.109 58.6867 120.202 59.9097C119.479 60.8826 119.196 62.0662 119.402 63.243C119.61 64.4189 120.282 65.4483 121.296 66.1403C123.391 67.5689 126.308 67.0979 127.799 65.0903C128.52 64.1191 128.804 62.9347 128.598 61.7579C128.39 60.5811 127.718 59.5525 126.703 58.8605C125.884 58.3021 124.941 58.034 124.006 58.034ZM123.992 67.783C122.887 67.783 121.77 67.4653 120.802 66.8058C118.326 65.116 117.745 61.8101 119.507 59.436C121.27 57.062 124.719 56.5053 127.197 58.195C129.674 59.884 130.256 63.1907 128.493 65.564C127.419 67.0114 125.717 67.783 123.992 67.783ZM120.413 70.7789L120.663 70.8697C121.472 71.1677 122.323 71.3536 123.19 71.4255L123.456 71.4478L124.11 73.0836L127.514 72.5337L127.573 70.7832L127.816 70.6787C128.612 70.3387 129.352 69.895 130.014 69.3606L130.219 69.1962L131.887 69.9096L133.888 67.2135L132.639 65.9374L132.734 65.6984C133.044 64.9233 133.238 64.108 133.314 63.2764L133.336 63.0212L135.044 62.3942L134.469 59.132L132.642 59.0763L132.533 58.8434C132.179 58.0803 131.715 57.3711 131.158 56.7374L130.986 56.5412L131.731 54.9422L128.919 53.0238L127.586 54.222L127.337 54.1303C126.528 53.8331 125.678 53.6464 124.81 53.5754L124.543 53.5531L123.891 51.9173L120.486 52.4663L120.427 54.2177L120.184 54.3222C119.388 54.6622 118.648 55.1058 117.985 55.6402L117.781 55.8047L116.113 55.0913L114.112 57.7865L115.362 59.0635L115.266 59.3024C114.955 60.0775 114.761 60.8929 114.686 61.7245L114.663 61.9797L112.956 62.6058L113.53 65.8689L115.358 65.9237L115.466 66.1575C115.821 66.9197 116.283 67.6289 116.842 68.2643L117.013 68.4605L116.268 70.0586L119.082 71.9771L120.413 70.7789ZM123.563 74L122.849 72.2134C122.084 72.1312 121.333 71.9668 120.611 71.7227L119.157 73.0305L115.206 70.3361L116.019 68.5907C115.542 68.016 115.132 67.3899 114.801 66.7245L112.805 66.6636L112 62.0816L113.864 61.3982C113.95 60.6651 114.123 59.9448 114.377 59.2519L113.013 57.8585L115.822 54.073L117.645 54.8523C118.244 54.3941 118.898 54.0027 119.593 53.6841L119.655 51.7725L124.437 51L125.151 52.7866C125.915 52.8696 126.665 53.0341 127.39 53.279L128.844 51.9704L132.793 54.6648L131.98 56.4094C132.458 56.9849 132.867 57.6101 133.2 58.2764L135.194 58.3372L136 62.9192L134.136 63.6027C134.05 64.3358 133.878 65.0552 133.622 65.7489L134.988 67.1424L132.176 70.9279L130.355 70.1485C129.756 70.6067 129.103 70.9981 128.407 71.3167L128.345 73.2283L123.563 74Z" fill="#A1D4FF"/>
<path d="M15.5 76.8457C8.14133 76.8457 2.1557 70.8584 2.1557 63.5C2.1557 56.1416 8.14133 50.1552 15.5 50.1552C22.8587 50.1552 28.845 56.1416 28.845 63.5H28.014C28.014 56.5998 22.4 50.9862 15.5 50.9862C8.59902 50.9862 2.98598 56.5998 2.98598 63.5C2.98598 70.4002 8.59902 76.0146 15.5 76.0146V76.8457ZM15.5 79C6.95372 79 0 72.0467 0 63.5H0.830271C0.830271 71.5893 7.41141 78.1689 15.5 78.1689C23.5886 78.1689 30.1697 71.5893 30.1697 63.5C30.1697 55.4116 23.5886 48.8311 15.5 48.8311V48C24.0463 48 31 54.9534 31 63.5C31 72.0467 24.0463 79 15.5 79Z" fill="#78C2FF"/>
<path d="M13.5986 68L8 62.3957L8.58847 61.8072L13.5986 66.822L22.4122 58L23 58.5885L13.5986 68Z" fill="#78C2FF"/>
<path d="M341.792 253.082H106.8L81.0846 349.308H367.507L341.792 253.082Z" fill="url(#paint11_linear)"/>
<path d="M115.608 270H130.037C130.64 270 131.096 270.474 130.983 270.985L129.586 277.327C129.499 277.717 129.102 278 128.64 278H113.963C113.347 278 112.889 277.508 113.024 276.99L114.668 270.649C114.766 270.27 115.156 270 115.608 270Z" fill="white"/>
<path d="M136.717 270H148L146.499 278H135L136.717 270Z" fill="white"/>
<path d="M153.322 270H164L162.883 277.989L152 278L153.322 270Z" fill="white"/>
<path d="M169.042 270H180L179.167 278H168L169.042 270Z" fill="white"/>
<path d="M185.749 270H197L196.464 278H185L185.749 270Z" fill="white"/>
<path d="M202.403 270H213L212.799 277.989L202 278L202.403 270Z" fill="white"/>
<path d="M332.975 270H317L318.721 278H335L332.975 270Z" fill="white"/>
<path d="M311.416 270H301L302.387 278H313L311.416 270Z" fill="white"/>
<path d="M294.679 270H284L285.117 277.989L296 278L294.679 270Z" fill="white"/>
<path d="M278.959 270H268L268.833 278H280L278.959 270Z" fill="white"/>
<path d="M262.252 270H251L251.536 278H263L262.252 270Z" fill="white"/>
<path d="M245.597 270H235L235.203 277.989L246 278L245.597 270Z" fill="white"/>
<path d="M219 270H229.822L230 278H219V270Z" fill="white"/>
<path d="M110.764 284H134L132.675 292H109L110.764 284Z" fill="white"/>
<path d="M336.882 284H309L310.589 292H339L336.882 284Z" fill="white"/>
<path d="M302.592 284H292L293.207 292H304L302.592 284Z" fill="white"/>
<path d="M285.866 284H275L275.929 292H287L285.866 284Z" fill="white"/>
<path d="M269.154 284H258L258.635 292H270L269.154 284Z" fill="white"/>
<path d="M252.457 284H241L241.326 292H253L252.457 284Z" fill="white"/>
<path d="M107.174 298H131L129.262 307H105L107.174 298Z" fill="white"/>
<path d="M136.565 298H148L146.644 307H135L136.565 298Z" fill="white"/>
<path d="M154.276 298H241.675L242 307H153L154.276 298Z" fill="white"/>
<path d="M247 298H259.325L260 307H247.449L247 298Z" fill="white"/>
<path d="M265 298H276.09L277 307H265.707L265 298Z" fill="white"/>
<path d="M282 298H293.717L295 307H283.069L282 298Z" fill="white"/>
<path d="M300 298H311.435L313 307H301.356L300 298Z" fill="white"/>
<path d="M317 298H340.827L343 307H318.739L317 298Z" fill="white"/>
<path d="M235.774 284H224V292H236L235.774 284Z" fill="white"/>
<path d="M218 284H207.306L207 292H217.898L218 284Z" fill="white"/>
<path d="M202 284H190.648L190 292H201.569L202 284Z" fill="white"/>
<path d="M185 284H173.025L172 292H184.204L185 284Z" fill="white"/>
<path d="M168 284H156.33L155 292H166.892L168 284Z" fill="white"/>
<path d="M151 284H139.62L138 292H149.596L151 284Z" fill="white"/>
<path d="M116 265L117.813 258H123L121.308 265H116Z" fill="white"/>
<path d="M128.632 258H139L137.549 265H127L128.632 258Z" fill="white"/>
<path d="M144.391 258H155L153.795 265H143L144.391 258Z" fill="white"/>
<path d="M160.139 258H171L170.05 265H159L160.139 258Z" fill="white"/>
<path d="M176.802 258H187L186.376 265H176L176.802 258Z" fill="white"/>
<path d="M192.548 258H203L202.635 265H192L192.548 258Z" fill="white"/>
<path d="M208.28 258H219L218.906 265H208L208.28 258Z" fill="white"/>
<path d="M224 258H234.811L235 265H224V258Z" fill="white"/>
<path d="M240 258H250.539L251 265H240.277L240 258Z" fill="white"/>
<path d="M256 258H266.281L267 265H256.54L256 258Z" fill="white"/>
<path d="M272 258H282.035L283 265H272.789L272 258Z" fill="white"/>
<path d="M288 258H298.692L300 265H289.122L288 258Z" fill="white"/>
<path d="M304 258H314.447L316 265H305.37L304 258Z" fill="white"/>
<path d="M319 258H330.065L332 265H320.741L319 258Z" fill="white"/>
<path d="M360.024 356.8H88.5667C84.4349 356.8 81.0846 353.445 81.0846 349.308H367.507C367.507 353.445 364.157 356.8 360.024 356.8Z" fill="url(#paint12_linear)"/>
<path d="M257.231 317.976C256.952 316.258 255.492 315 253.779 315H223.999H194.219C192.508 315 191.048 316.258 190.769 317.976L187.048 340.865C186.695 343.031 188.34 345 190.498 345H223.999H257.501C259.661 345 261.304 343.031 260.953 340.865L257.231 317.976Z" fill="#4D78EB"/>
<path d="M154 126H130V124H154V126Z" fill="#E0E0E0"/>
<path d="M178 145H161V143H178V145Z" fill="#E0E0E0"/>
<path d="M193 145H181V143H193V145Z" fill="#1487E3"/>
<path d="M142 192H130V190H142V192Z" fill="#1487E3"/>
<path d="M223 145H195V143H223V145Z" fill="#E0E0E0"/>
<path d="M148 183H130V180H148V183Z" fill="#E0E0E0"/>
<path d="M166 202H155V199H166V202Z" fill="#E0E0E0"/>
<path d="M152 202H130V199H152V202Z" fill="#1487E3"/>
<path d="M142 211H130V208H142V211Z" fill="#E0E0E0"/>
<path d="M176 126H159V124H176V126Z" fill="#78C2FF"/>
<path d="M176 154H159V152H176V154Z" fill="#1487E3"/>
<path d="M158 164H150V161H158V164Z" fill="#E0E0E0"/>
<path d="M159 173H143V171H159V173Z" fill="#78C2FF"/>
<path d="M185 173H162V171H185V173Z" fill="#1487E3"/>
<path d="M147 164H130V161H147V164Z" fill="#1487E3"/>
<path d="M140 173H130V171H140V173Z" fill="#1487E3"/>
<path d="M171 164H161V161H171V164Z" fill="#FF8761"/>
<path d="M140 220H130V218H140V220Z" fill="#FF8761"/>
<path d="M147 145H130V143H147V145Z" fill="#78C2FF"/>
<path d="M162 192H145V190H162V192Z" fill="#78C2FF"/>
<path d="M163 211H145V208H163V211Z" fill="#78C2FF"/>
<path d="M193 211H176V208H193V211Z" fill="#78C2FF"/>
<path d="M155 154H130V152H155V154Z" fill="#78C2FF"/>
<path d="M262 126H245V124H262V126Z" fill="#78C2FF"/>
<path d="M201 220H184V218H201V220Z" fill="#78C2FF"/>
<path d="M279 126H268V124H279V126Z" fill="#78C2FF"/>
<path d="M318 136H307V133H318V136Z" fill="#78C2FF"/>
<path d="M203 126H181V124H203V126Z" fill="#1487E3"/>
<path d="M288 136H266V133H288V136Z" fill="#1487E3"/>
<path d="M261 145H239V143H261V145Z" fill="#1487E3"/>
<path d="M233 154H211V152H233V154Z" fill="#1487E3"/>
<path d="M280 145H264V143H280V145Z" fill="#78C2FF"/>
<path d="M241 126H219V124H241V126Z" fill="#FF8761"/>
<path d="M207 154H194V152H207V154Z" fill="#FF8761"/>
<path d="M197 192H184V190H197V192Z" fill="#FF8761"/>
<path d="M215 126H207V124H215V126Z" fill="#E0E0E0"/>
<path d="M189 154H181V152H189V154Z" fill="#E0E0E0"/>
<path d="M302 136H294V133H302V136Z" fill="#E0E0E0"/>
<path d="M142 136H130V133H142V136Z" fill="#1487E3"/>
<path d="M173 183H163V180H173V183Z" fill="#1487E3"/>
<path d="M149 136H145V133H149V136Z" fill="#1487E3"/>
<path d="M262 136H229V133H262V136Z" fill="#E0E0E0"/>
<path d="M230 211H197V208H230V211Z" fill="#E0E0E0"/>
<path d="M157 136H152V133H157V136Z" fill="#FF8761"/>
<path d="M226 136H215V133H226V136Z" fill="#1487E3"/>
<path d="M237 145H226V143H237V145Z" fill="#FF8761"/>
<path d="M180 220H169V218H180V220Z" fill="#FF8761"/>
<path d="M212 136H188V133H212V136Z" fill="#1487E3"/>
<path d="M180 192H167V190H180V192Z" fill="#1487E3"/>
<path d="M173 211H166V208H173V211Z" fill="#1487E3"/>
<path d="M185 136H177V133H185V136Z" fill="#78C2FF"/>
<path d="M158 145H150V143H158V145Z" fill="#FF8761"/>
<path d="M160 183H152V180H160V183Z" fill="#FF8761"/>
<path d="M174 136H160V133H174V136Z" fill="#1487E3"/>
<path d="M341.802 232.585H368.738V155.081H341.802V232.585Z" fill="#FDFDFD"/>
<path d="M333.076 232.585H341.802V155.081H333.076V232.585Z" fill="url(#paint13_linear)"/>
<path d="M333.076 232.585H263.559C261.632 232.585 260.07 231.02 260.07 229.091V158.574C260.07 156.645 261.632 155.081 263.559 155.081H333.076V232.585Z" fill="url(#paint14_linear)"/>
<path d="M366.666 232.247C368.738 224.775 365.812 219.346 365.298 214.185C364.96 210.812 366.662 208.973 368.658 208.6V229.091C368.658 230.483 367.844 231.685 366.666 232.247Z" fill="url(#paint15_linear)"/>
<path d="M349 176H369V175H349V176Z" fill="#DFF0FF"/>
<path d="M356.672 200H339.328C338.595 200 338 199.442 338 198.756V196.244C338 195.558 338.595 195 339.328 195H356.672C357.406 195 358 195.558 358 196.244V198.756C358 199.442 357.406 200 356.672 200Z" fill="#4AAFFF"/>
<path d="M356.672 210H339.328C338.595 210 338 209.443 338 208.756V206.244C338 205.558 338.595 205 339.328 205H356.672C357.406 205 358 205.558 358 206.244V208.756C358 209.443 357.406 210 356.672 210Z" fill="#4AAFFF"/>
<path d="M356.672 221H339.328C338.595 221 338 220.332 338 219.507V216.494C338 215.668 338.595 215 339.328 215H356.672C357.406 215 358 215.668 358 216.494V219.507C358 220.332 357.406 221 356.672 221Z" fill="#4AAFFF"/>
<path d="M307.572 214.173C298.514 217.412 288.751 214.488 282.867 207.571C281.464 205.923 280.281 204.047 279.382 201.973C279.183 201.516 278.997 201.047 278.827 200.571C277.115 195.784 277.125 190.8 278.535 186.298C280.569 179.798 285.521 174.296 292.428 171.827C294.708 171.011 297.032 170.587 299.327 170.517C308.808 170.231 317.806 176.013 321.173 185.427C325.355 197.12 319.265 209.99 307.572 214.173ZM328.24 182.9C323.749 170.344 311.75 162.633 299.103 163.013C296.041 163.106 292.943 163.671 289.901 164.758C280.689 168.054 274.084 175.392 271.369 184.06C269.489 190.068 269.477 196.714 271.76 203.099C271.987 203.735 272.233 204.358 272.499 204.968C273.699 207.734 275.276 210.235 277.147 212.435C284.996 221.661 298.018 225.56 310.1 221.241C325.697 215.661 333.818 198.497 328.24 182.9Z" fill="#4AAFFF"/>
<path d="M278.92 186L272 183.789C274.621 175.227 281.001 167.979 289.897 164.724C292.834 163.65 295.827 163.091 298.784 163L299 170.412C296.784 170.481 294.539 170.9 292.337 171.706C285.667 174.144 280.885 179.579 278.92 186Z" fill="#1A598C"/>
<path d="M280 201.991L272.663 205C272.38 204.387 272.118 203.761 271.876 203.122C269.442 196.71 269.455 190.035 271.46 184L279.097 186.248C277.594 190.769 277.584 195.776 279.408 200.583C279.59 201.061 279.788 201.532 280 201.991Z" fill="#2273B5"/>
<path d="M277.484 213C275.679 210.688 274.158 208.057 273 205.15L279.639 202C280.507 204.181 281.647 206.153 283 207.886L277.484 213Z" fill="#3788CC"/>
<path d="M310.449 211.052C310.449 211.052 309.006 208.554 311.294 201.863C313.508 195.392 321.172 195.978 323.607 200.124C326.043 204.269 325.221 206.846 321.635 211.527C318.049 216.208 311.937 213.192 310.449 211.052Z" fill="#EEA886"/>
<path d="M328 328.388C328 328.388 328.381 331.397 328.428 331.851C328.475 332.302 332.661 331.585 332.661 331.585L333 328.001C333 328.001 328.524 327.964 328 328.388Z" fill="#EEA886"/>
<path d="M328.533 331.182C328.533 331.182 327.157 332.798 325.828 333.501C324.497 334.207 322.407 334.485 321.62 335.215C321.052 335.74 319.552 338.007 325.077 337.961C330.602 337.916 333.265 338.282 333.858 337.413C334.45 336.543 333.002 331 333.002 331C333.002 331 331.65 331.354 328.533 331.182Z" fill="#414773"/>
<path d="M299 328.388C299 328.388 299.382 331.397 299.428 331.851C299.476 332.302 303.661 331.585 303.661 331.585L304 328.001C304 328.001 299.524 327.964 299 328.388Z" fill="#EEA886"/>
<path d="M299.728 331.182C299.728 331.182 298.401 332.805 297.118 333.511C295.835 334.219 291.113 334.799 290.355 335.531C289.806 336.06 288.896 338.187 296.393 337.987C301.721 337.846 304.291 338.309 304.863 337.437C305.434 336.564 304.036 331 304.036 331C304.036 331 302.381 331.284 299.728 331.182Z" fill="#414773"/>
<path d="M326.754 258C326.754 258 329.015 264.695 328.717 270.466C328.419 276.236 329.885 282.551 330.485 288.579C331.154 295.298 333.889 311.207 333.987 314.802C334.088 318.396 333.563 329.875 333.563 329.875L328.087 330C328.087 330 323.489 302.189 322.298 299.351C321.108 296.513 315.201 276.281 315.002 274.011C314.804 271.74 326.754 258 326.754 258Z" fill="#2D314F"/>
<path d="M304.808 257.418C304.808 257.418 301.558 275.094 301.169 278.621C300.782 282.147 300.522 295.685 300.328 297.889C300.134 300.092 299.035 326.727 298 330H303.968C303.968 330 310.097 310.639 310.097 301.477C310.097 292.316 314.154 281.561 316.773 275.518C319.394 269.472 325.39 269.329 327 258.115C327 258.115 306.987 253.862 304.808 257.418Z" fill="#2D314F"/>
<path d="M312.033 213.037C312.033 213.037 312.669 214.901 312.033 216.231C311.397 217.56 320.16 216.763 320.16 216.763C320.16 216.763 319.764 214.015 320.909 211.754C322.053 209.493 312.033 213.037 312.033 213.037Z" fill="#EEA886"/>
<path d="M327 259.849C327 259.849 323.798 262.714 305 259.403L305.287 258L326.656 258.702L327 259.849Z" fill="#2B3B57"/>
<path d="M310.776 216.537C310.776 216.537 307.417 216.881 306.457 217.066C305.498 217.249 299.038 215.902 297.712 215.765C296.386 215.627 290.734 211.731 290.551 211.27C290.369 210.811 287.114 202.517 286.931 200.724C286.748 198.928 283.76 199.855 284.016 201.091C284.495 203.403 285.11 209.015 285.448 210.642C285.813 212.399 286.789 216.376 287.337 216.866C287.886 217.356 292.975 221.251 297.956 222.906C302.939 224.562 306.688 227 306.688 227H331.24C331.24 227 340.791 213.264 340.996 211.194C341.2 209.125 334.326 195.369 332.954 193.644C331.583 191.919 329.6 194.207 329.6 194.207C329.6 194.207 333.709 206.338 334.256 208.063C334.806 209.787 329.478 217.364 328.015 217.388C326.552 217.411 322.798 216.927 321.129 216.858C319.46 216.789 317.7 216.053 317.7 216.053L310.776 216.537Z" fill="#EEA886"/>
<path d="M300.221 225.501C300.221 225.501 303.235 227.51 303.509 230.956C303.784 234.403 304.884 239.849 305.433 241.71C305.984 243.572 304.952 257.083 304.815 258.048C304.677 259.014 323.856 261.306 326.8 259.014C326.8 259.014 327.625 246.397 327.969 242.813C328.313 239.229 329.961 230.544 330.511 229.372C331.061 228.199 337.725 218.82 338 217.584C338 217.584 334.551 212.069 332.079 212C332.079 212 328.15 216.619 326.87 216.825C325.588 217.032 317.738 215.588 317.736 215.576C317.736 215.576 316.88 216.748 312.324 215.368C312.324 215.368 306.899 215.982 306.017 216.095C304.948 216.233 297.52 215.16 297.52 215.16C297.52 215.16 294.539 220.21 295.061 222.758L300.221 225.501Z" fill="#FFC655"/>
<path d="M287.162 201.718C287.162 201.718 286.545 198.514 287.288 197.594C287.711 197.071 288.725 195.683 288.817 195.48C288.911 195.276 290 194.588 290 194.257C290 193.926 288.934 193.518 288.007 194.461C287.079 195.403 286.5 195.607 286.13 195.505C285.757 195.403 285.225 192.016 285.178 191.176C285.132 190.335 284.837 188.119 284.358 188.273C283.88 188.425 283.903 189.393 283.903 189.393C283.903 189.393 283.347 187.711 282.976 188.043C282.605 188.374 282.651 189.19 282.651 189.19C282.651 189.19 281.955 188.247 281.77 188.935C281.584 189.623 281.77 190.233 281.77 190.233C281.77 190.233 281.051 189.8 281.006 190.87C280.958 191.939 281.214 195.072 281.724 196.193C282.233 197.314 284.143 200.244 284.37 201.389C284.598 202.534 287.162 201.718 287.162 201.718Z" fill="#EEA886"/>
<path d="M330.126 196C330.126 196 327.823 192.233 327.038 191.898C326.255 191.561 325.149 191.37 324.181 190.698C323.213 190.026 321.934 189.466 322.003 189.242C322.072 189.017 323.213 189.107 324.434 189.622C325.656 190.138 326.191 189.888 326.307 189.62C326.423 189.351 325.656 187.452 325.287 187.003C324.917 186.555 322.291 183.985 322.729 183.603C323.167 183.223 324.872 184.636 325.149 184.926C325.149 184.926 323.789 182.148 324.32 182.013C324.849 181.878 325.84 182.864 325.84 182.864C325.84 182.864 325.726 180.489 328.352 184.344C328.352 184.344 327.799 183.066 328.606 183.493C329.412 183.918 330.197 186.317 330.45 187.527C330.703 188.737 331.854 192.592 332.834 193.522C333.815 194.452 330.126 196 330.126 196Z" fill="#EEA886"/>
<path d="M321.244 210.996C321.244 210.996 320.075 211.1 317.587 210.243C315.099 209.386 314.914 205.05 314.376 205.563C313.279 206.612 312.242 205.888 311.827 205.268C311.827 205.268 313.041 203.674 312.478 202.905C311.916 202.138 311 201.578 311 201.578C311 201.578 312.749 193.17 320.712 197C330.039 201.488 321.244 210.996 321.244 210.996Z" fill="#353A3D"/>
<path d="M312 216.049L312.3 215.01C312.3 215.01 317.727 214.922 320.687 215.265L321 216.506C321 216.506 317.208 217.878 312 216.049Z" fill="#D4D8E8"/>
<path d="M313.693 204.646C314.141 203.899 315.799 203.394 315.995 205.512C316.146 207.156 313.03 208.949 313.001 207.419C312.973 205.887 313.394 205.144 313.693 204.646Z" fill="#EEA886"/>
<path d="M286.763 201C286.763 201 284.908 201.05 284.008 201.964C284.008 201.964 283.949 202.544 284.157 203C284.157 203 285.766 202.157 287 202C287 202 286.978 201.242 286.763 201Z" fill="#E55353"/>
<path d="M285.078 201.611C284.865 202.119 285.103 202.707 285.61 202.921C286.119 203.135 286.706 202.898 286.921 202.389C287.136 201.88 286.898 201.294 286.389 201.079C285.88 200.864 285.293 201.103 285.078 201.611Z" fill="#353A3D"/>
<path d="M239.404 135.099C239.404 135.099 242.064 139.366 243.187 140.063C244.712 141.009 243.756 141.965 243.032 141.966C242.308 141.967 238.612 142.217 237.797 141.343C236.982 140.468 236.579 137.846 235.821 137.16C235.063 136.475 234.282 133.748 236.19 133.086C237.878 132.499 239.404 135.099 239.404 135.099Z" fill="#6069A8"/>
<path d="M238.24 133.147C238.24 133.147 241.354 138.54 241.89 139.337C242.426 140.134 240.879 140.132 239.92 139.754C238.962 139.375 236.551 135.507 236.205 134.803C235.792 133.963 236.131 133 236.131 133L238.24 133.147Z" fill="#202338"/>
<path d="M235 136L235.653 140.985L236 141L235.892 137.414L235 136Z" fill="#6069A8"/>
<path d="M212.409 135.087C212.409 135.087 215.067 139.361 216.187 140.06C217.711 141.007 216.757 141.965 216.034 141.966C215.311 141.967 211.617 142.218 210.805 141.341C209.99 140.465 209.588 137.838 208.831 137.151C208.074 136.465 207.267 133.663 209.198 133.07C210.894 132.55 212.409 135.087 212.409 135.087Z" fill="#6069A8"/>
<path d="M211.403 133.158C211.403 133.158 214.352 138.54 214.89 139.337C215.426 140.134 213.878 140.132 212.92 139.754C211.962 139.375 209.551 135.507 209.205 134.803C208.792 133.963 209.131 133 209.131 133L211.403 133.158Z" fill="#202338"/>
<path d="M208 136L208.653 140.985L209 141L208.892 137.414L208 136Z" fill="#6069A8"/>
<path d="M201 93.7386L225.051 104.658C225.051 104.658 227.735 105.528 228.036 108.498C228.975 117.769 235.935 132.477 235.935 132.477C238.168 133.564 237.997 132.62 237.997 132.62C236.59 128.119 234.877 109.568 234.266 102.109C234.136 100.529 234.056 99.4475 234.038 99.1018C234.027 98.8661 233.768 98.5591 233.323 98.1996C230.022 95.5326 216.443 90.012 216.443 90.012C206.247 89.754 201 93.7386 201 93.7386Z" fill="#202338"/>
<path d="M196.097 98.225C196.844 104.799 206.167 104.046 206.167 104.046H217.464C217.464 104.046 214.497 110.694 213.35 116.302C212.134 122.253 209.268 132.782 209.268 132.782C209.268 132.782 209.455 133.14 211.5 132.939C211.5 132.939 220.367 115.145 223.763 110.671C224.493 109.709 226.586 104.483 226.946 101.366C227.069 100.317 226.993 99.5073 226.604 99.179C226.211 98.8482 225.311 98.225 224.11 97.4621C220.57 95.2153 214.426 91.7569 211.001 90.9826C206.415 89.9448 199.163 88 199.163 88C199.163 88 195.35 91.6513 196.097 98.225Z" fill="#202338"/>
<path d="M204.055 47.9707C204.055 47.9707 202.423 44.8412 203.218 41.5089C204.014 38.1767 207.075 34.8562 211.559 36.3816C216.041 37.9062 219.664 41.4228 216.978 45.4894C214.291 49.5561 219.41 51.3926 218.105 53.3279C216.801 55.2632 217.295 57.2839 217.848 57.7343C218.4 58.1839 220.182 59.7888 219.985 61.6895C219.789 63.5893 211.288 56.1514 211.288 56.1514C211.288 56.1514 206.657 46.7563 204.055 47.9707Z" fill="#464240"/>
<path d="M218 88.6545C218 88.6545 217.292 92.2354 199 87.7136C199 87.7136 205.131 85.597 218 88.6545Z" fill="#EB4747"/>
<path d="M198.76 88.8017C198.472 89.3405 198.186 89.8794 197.9 90.4183C204.659 90.6116 211.42 90.8058 218.179 91C217.111 87.4746 217.458 82.7018 217.645 79.0785C217.873 74.6529 220.355 71.5763 220.092 67.1001C221.429 67.3135 221.66 67.3538 223 67.555C220.951 61.8103 220.25 58.9637 213.887 56.7523C211.815 56.0323 210.454 55.8897 208.211 56.0717C200.842 56.6692 198.619 56.7549 195 63.3289C200.666 64.2177 199.733 66.22 201.451 71.7688C202.289 74.4745 203.165 77.4942 202.715 80.3478C202.273 83.1576 198.76 86.2394 198.76 88.8017Z" fill="#325BB3"/>
<path d="M210.303 58.8865C207.446 58.3254 208.054 56.6724 208.054 56.6724C208.054 56.6724 208.186 55.7401 208.238 54.5608C208.252 54.2596 208.259 53.9409 208.257 53.6179C208.256 53.1285 208.233 52.6277 208.18 52.1567C207.945 50.1624 213.365 51.3521 213.365 51.3521C213.365 51.3521 213.053 55.3881 213.8 56.5972C214.547 57.8071 213.161 59.4477 210.303 58.8865Z" fill="#EEA886"/>
<path d="M205 56.5369C205 56.5369 210.563 63.4077 212.619 65C212.619 65 214.982 62.7167 213.526 56.6864C213.526 56.6864 210.84 55.2471 205 56.5369Z" fill="#EEA886"/>
<path d="M205.299 40.0559C205.299 40.0559 202.392 45.7335 205.275 51.1112C208.158 56.4881 213.822 48.7692 214.187 47.8634C214.555 46.9576 216.496 41.8352 212.634 40.278C208.771 38.7216 206.123 38.5152 205.299 40.0559Z" fill="#EEA886"/>
<path d="M206.435 41.7318C206.435 41.7318 204.383 44.7005 204.14 46.8936C204.14 46.8936 203.324 42.7466 205.633 38.762C207.942 34.7784 213.814 38.5727 214.601 40.1647C215.386 41.7567 217.692 43.1593 213.82 50C213.82 50 206.857 44.671 206.435 41.7318Z" fill="#464240"/>
<path d="M211 52C211 52 210.389 53.0365 208 54C208.016 53.7357 208.024 53.456 208.022 53.1725C208.022 53.1725 209.64 53.0211 211 52Z" fill="#A77860"/>
<path d="M179.886 84.1816C179.886 84.1816 178.476 84.7466 177.806 84.4904C177.139 84.2342 176.104 84.1846 175.779 84.1838C175.343 84.1831 173.978 83.7443 174 84.2252C174.024 84.7053 176.217 85.0404 176.666 85.1906C177.115 85.3402 175.323 86.2282 175.157 86.6227C174.991 87.0172 177.013 89.6063 178.153 88.8685C179.294 88.1306 179.911 86.658 180.143 86.5648C180.376 86.4709 181 86.0577 181 86.0577L179.886 84.1816Z" fill="#EEA886"/>
<path d="M175.317 86C175.317 86 172.06 89.2236 172.009 89.6592C171.958 90.0948 172.13 90.2988 172.445 90.0124C172.761 89.7259 175.676 87.0075 175.676 87.0075C175.676 87.0075 172.412 91.6085 172.302 91.9499C172.237 92.15 172.55 92.566 172.733 92.4316C172.915 92.2972 176.386 87.965 176.386 87.965C176.386 87.965 173.345 92.2687 173.33 92.5905C173.315 92.8721 173.68 93.1762 173.926 92.876C174.172 92.5758 177.198 88.7792 177.198 88.7792C177.198 88.7792 175.164 92.0833 175.289 92.3737C175.366 92.5523 175.623 92.925 176.124 92.0519C176.624 91.1788 178 89.2757 178 89.2757L175.317 86Z" fill="#EEA886"/>
<path d="M216.365 103.974H206.206C206.206 103.974 196.847 104.722 196.098 98.1793C195.346 91.6347 199.175 88 199.175 88C199.175 88 204.119 89.3147 208.436 90.3548C210.596 89.8968 213.2 89.5988 216.242 89.6761C216.242 89.6761 234.539 95.7107 233.988 98.8883C233.988 98.8883 226.334 94.8036 216.365 103.974Z" fill="#FF7E55"/>
<path d="M210 93.23L229 93L219.407 97L210 93.23Z" fill="#5E5853"/>
<path d="M215.951 90.0887C215.951 90.0887 211.592 92.0107 206.25 90.2722L206 88L217 88.6972L215.951 90.0887Z" fill="#325BB3"/>
<path d="M219.267 97L210 93.825V93L220 96.1899L219.267 97Z" fill="#91887F"/>
<path d="M215.632 91.2194C215.583 91.9248 216.287 92.4336 216.93 92.1556L218.024 91.6828C218.352 91.5404 218.544 91.1894 218.487 90.8307C218.031 87.9432 217.054 76.7012 218.484 74.7713C219.011 74.0591 219.34 73.4335 219.525 72.8878C220.469 75.3514 221.643 78.5255 222.11 80.2323L231.014 92.2329L234 93C230.274 83.9058 227.281 79.0876 227.281 79.0876C226.698 77.5026 225.027 72.7033 223.547 68.4299C222.613 65.7312 221.755 63.2427 221.294 61.9058C221.06 61.2279 220.599 60.6555 219.99 60.2883C218.611 59.4525 216.313 58.1361 214.229 57.1116L214.204 57.0995L214.005 57.0017L214.001 57.0009L214 57C217.962 63.0737 216.417 80.2263 215.635 91.1954L215.632 91.2194Z" fill="#EDDAD3"/>
<path d="M200.308 57.0933C199.016 57.2925 195.813 60.4035 194.113 63.5428C192.172 67.1263 190.195 71.2055 188.714 72.5472C185.991 75.0157 178.368 83.7389 178.006 83.5277C177.867 83.4466 180.097 86.1325 180.38 86.2575C180.521 86.3205 192.909 75.5831 194.098 73.9474C195.227 72.3963 198.243 65.8872 199.146 66.0304L199.148 66.0356L199.149 66.0381C199.218 66.1856 200.315 68.5653 201.355 72.0445L201.407 72.2178C202.123 74.6441 202.057 77.2782 201.669 80.2383C201.376 82.4723 199.709 86.1247 198.704 87.9027C198.582 88.1165 198.613 88.5235 198.744 88.833C198.823 89.0175 198.936 89.1676 199.074 89.2184L202.71 90.5661L203.565 90.8834C204.181 91.111 204.826 90.9921 205.308 90.642C205.704 90.3549 205.989 89.9125 206.059 89.3771C206.867 83.1552 207.89 76.798 208.706 74.4035C212.284 63.8955 207.308 56 207.308 56C207.308 56 201.441 56.67 200.308 57.0933Z" fill="#EDDAD3"/>
<path d="M219 97L224.919 82L244 82.2889L238.359 96.1118L219 97Z" fill="#6E6760"/>
<path d="M231.287 88.688C230.8 89.994 230.947 91.4154 231.617 91.8638C232.287 92.3122 233.225 91.6171 233.712 90.312C234.2 89.007 234.053 87.5846 233.383 87.1362C232.714 86.6878 231.776 87.3829 231.287 88.688Z" fill="#807066"/>
<path d="M211.199 46.1225C211.199 46.1225 212.428 47.9123 211.293 49.458C210.155 51.0028 211.58 52.5207 211.825 54.154C212.073 55.7872 207.081 60.1338 212.633 62.3202C218.183 64.5065 219.95 60.8924 218.534 58.903C217.118 56.9137 216.112 55.2998 215.992 52.4643C215.873 49.6281 214.875 45.2074 211.199 46.1225Z" fill="#464240"/>
<path d="M173 24H195V44L191.642 40.5207H173V24Z" fill="#78C2FF"/>
<defs>
<linearGradient id="paint0_linear" x1="99.627" y1="191.088" x2="360.791" y2="191.088" gradientUnits="userSpaceOnUse">
<stop stop-color="#40D5E6"/>
<stop offset="1" stop-color="#5577FF"/>
</linearGradient>
<linearGradient id="paint1_linear" x1="115.028" y1="179.514" x2="333.076" y2="179.514" gradientUnits="userSpaceOnUse">
<stop stop-color="#404B61"/>
<stop offset="0.468241" stop-color="#404B61"/>
<stop offset="1" stop-color="#2F3E5C"/>
</linearGradient>
<linearGradient id="paint2_linear" x1="402.771" y1="260.115" x2="458.874" y2="260.115" gradientUnits="userSpaceOnUse">
<stop stop-color="#3076A1"/>
<stop offset="1" stop-color="#639C38"/>
</linearGradient>
<linearGradient id="paint3_linear" x1="397.897" y1="251.926" x2="471.147" y2="251.926" gradientUnits="userSpaceOnUse">
<stop stop-color="#3076A1"/>
<stop offset="1" stop-color="#639C38"/>
</linearGradient>
<linearGradient id="paint4_linear" x1="381.068" y1="240.83" x2="428.317" y2="240.83" gradientUnits="userSpaceOnUse">
<stop stop-color="#3076A1"/>
<stop offset="1" stop-color="#639C38"/>
</linearGradient>
<linearGradient id="paint5_linear" x1="394.199" y1="251.06" x2="408.525" y2="251.06" gradientUnits="userSpaceOnUse">
<stop stop-color="#3076A1"/>
<stop offset="1" stop-color="#639C38"/>
</linearGradient>
<linearGradient id="paint6_linear" x1="361.777" y1="253.902" x2="408.026" y2="253.902" gradientUnits="userSpaceOnUse">
<stop stop-color="#3076A1"/>
<stop offset="1" stop-color="#639C38"/>
</linearGradient>
<linearGradient id="paint7_linear" x1="392.742" y1="358.807" x2="431.737" y2="207.336" gradientUnits="userSpaceOnUse">
<stop stop-color="#3076A1"/>
<stop offset="1" stop-color="#639C38"/>
</linearGradient>
<linearGradient id="paint8_linear" x1="406.887" y1="280.278" x2="423.984" y2="280.278" gradientUnits="userSpaceOnUse">
<stop stop-color="#3076A1"/>
<stop offset="1" stop-color="#639C38"/>
</linearGradient>
<linearGradient id="paint9_linear" x1="392.206" y1="311.139" x2="423.815" y2="311.139" gradientUnits="userSpaceOnUse">
<stop stop-color="#FF9340"/>
<stop offset="1" stop-color="#FFCE45"/>
</linearGradient>
<linearGradient id="paint10_linear" x1="392.206" y1="311.139" x2="423.815" y2="311.139" gradientUnits="userSpaceOnUse">
<stop stop-color="#C97332"/>
<stop offset="1" stop-color="#FFCE45"/>
</linearGradient>
<linearGradient id="paint11_linear" x1="224.296" y1="243.78" x2="224.296" y2="388.75" gradientUnits="userSpaceOnUse">
<stop stop-color="#40D5E6"/>
<stop offset="1" stop-color="#5577FF"/>
</linearGradient>
<linearGradient id="paint12_linear" x1="-51.6681" y1="353.055" x2="234.755" y2="353.055" gradientUnits="userSpaceOnUse">
<stop stop-color="#40D5E6"/>
<stop offset="1" stop-color="#5577FF"/>
</linearGradient>
<linearGradient id="paint13_linear" x1="99.6268" y1="191.087" x2="360.791" y2="191.087" gradientUnits="userSpaceOnUse">
<stop stop-color="#D1F5F9"/>
<stop offset="1" stop-color="#D6DEFF"/>
</linearGradient>
<linearGradient id="paint14_linear" x1="115.028" y1="179.513" x2="333.076" y2="179.513" gradientUnits="userSpaceOnUse">
<stop stop-color="#D1D4D9"/>
<stop offset="0.468241" stop-color="#D1D4D9"/>
<stop offset="1" stop-color="#CDD1D8"/>
</linearGradient>
<linearGradient id="paint15_linear" x1="361.777" y1="253.902" x2="408.026" y2="253.902" gradientUnits="userSpaceOnUse">
<stop stop-color="#CDDEE9"/>
<stop offset="1" stop-color="#DAE7CF"/>
</linearGradient>
</defs>
</svg>
